<?xml version="1.0" encoding="utf-8"?>
<!-- Generator: Adobe Illustrator 23.0.1, SVG Export Plug-In . SVG Version: 6.00 Build 0)  -->
<svg version="1.1" id="Layer_1" xmlns="http://www.w3.org/2000/svg" xmlns:xlink="http://www.w3.org/1999/xlink" x="0px" y="0px"
	 viewBox="0 0 100 81.9" style="enable-background:new 0 0 100 81.9;" xml:space="preserve">
<style type="text/css">
	.st0{fill:#ffffff;}
</style>
<g>
	<path class="st0" d="M72.8,56.2c1.2-0.4,2.9-0.4,4.1-0.4c0.7,0,1.5,0,2.2,0c0.7,0,1.5,0,2.2,0c5.1,0,9.8-2.1,13.4-6.1
		c3.4-3.6,5.3-8.5,5.3-13.4c0-5.1-2-9.7-5.6-13c-3.4-3.1-8.1-4.8-13.1-4.8c-1.8,0-3.4,0.3-4.7,0.6c0-1.2,0-2.5,0-3.8
		c0-3.5-2.2-8.4-12.9-11.9C56.9,1.2,47.8,0,38.3,0c-9.5,0-18.6,1.2-25.4,3.5C2.2,7,0,11.9,0,15.4c0,14.9,0.5,26.8,3,36.2
		C5.5,60.8,9.8,67.8,17.4,75c4.8,4.5,12,6.9,20.9,6.9c8.9,0,16.1-2.4,20.9-6.9c5.8-5.5,9.7-11.1,12.7-18.2
		C71.9,56.7,72,56.5,72.8,56.2z M68,55.2c-2.6,6.3-6.1,11.5-11.7,16.8c-3.9,3.7-10,5.8-18,5.8c-8,0-14.1-2.1-18-5.8
		C6.5,58.9,4.2,46.8,4.2,15.4c0-6.2,15.3-11.3,34.1-11.3s34.1,5,34.1,11.3c0,3.2,0,6.1-0.1,8.9c0.2,0,0.4,0,0.6,0
		c2.1,0,4.4-1.6,8.3-1.6c4,0,7.7,1.3,10.3,3.7c2.7,2.5,4.2,6,4.2,9.9c0,3.8-1.5,7.7-4.2,10.6c-2.8,3-6.5,4.7-10.4,4.7
		c-1.4,0-2.9-0.1-4.4-0.1C73.1,51.6,69.3,52.1,68,55.2z"/>
	<path class="st0" d="M81.3,46c4.8-0.5,8.9-4.5,8.9-9.6c0-4.8-3.5-7.9-8.9-7.9c-4.5,0-7.7,2.3-9.3,5.2c-0.2,2.6-1.3,10.6-1.6,12.9
		c1.2-0.7,2.8-0.9,4.5-0.9c1.9,0,4,0.2,5.5,0.2C80.7,46,81,46,81.3,46z M76,35.1c0.8-1,2.3-2.4,5.2-2.4c2.1,0,4.7,0.6,4.7,3.7
		c0,3.1-2.6,5.2-5.1,5.4c-0.1,0-0.2,0-0.5,0c-0.6,0-1.3,0-2.1-0.1c-0.9-0.1-1.9-0.1-3-0.1C75.6,39.3,75.9,36.8,76,35.1z"/>
	<path class="st0" d="M62.8,12.2c-0.5-0.3-1.1-0.1-1.4,0.4c-0.3,0.5-0.1,1.1,0.4,1.4c1.4,0.7,2.2,1.6,2.2,2.2c0,0.6-0.6,1.4-2.2,2.2
		c-3.9-2.8-12.9-4.8-23.4-4.8c-10.5,0-19.6,2-23.4,4.8c-1.6-0.8-2.2-1.7-2.2-2.2c0-0.7,0.8-1.5,2.2-2.2c0.5-0.3,0.7-0.9,0.4-1.4
		c-0.3-0.5-0.9-0.7-1.4-0.4c-2.2,1.2-3.3,2.5-3.3,4c0,3.3,5.3,5.6,12.6,6.9c-0.9,1.1-1.4,2.8-1.4,5.2v10.3c-0.2,0.1-0.4,0.3-0.6,0.4
		l-4.6,4.6c-0.9,0.9-1.7,2.7-1.7,4v7.6c0,1.3,1.1,2.4,2.4,2.4h11.2c1.3,0,2.4-1.1,2.4-2.4v-7.6c0-1.3-0.8-3.1-1.7-4l-4.6-4.6
		c-0.2-0.2-0.4-0.3-0.6-0.4V28.3c0-2,0.4-3.3,1.1-4c0.5-0.5,1.2-0.7,2.2-0.6c0.1,0,0.1,0,0.2,0c3.5,0.4,7.3,0.6,11.1,0.6
		c13.8,0,27.8-2.8,27.8-8.1C66,14.7,64.9,13.3,62.8,12.2z"/>
</g>
</svg>
