<svg id="Layer_1" data-name="Layer 1" xmlns="http://www.w3.org/2000/svg" viewBox="0 0 703.93 112.2"><defs><style>.cls-1{fill:#000;}</style></defs><title>text-logo</title><path class="cls-1" d="M43.15,121.57c-3.75,0-10.2-.15-16.8-.15s-13,.15-16.8.15v-1.65l3.15-.45c6.9-1,8-2.7,8-15.6V68.47c0-7.2-1.35-9-6.9-11.1L9.4,55.72v-1.2l21.15-5,1.35.9v53.4c0,13,.9,14.55,8.25,15.6l3,.45Zm-18.3-88.2a7.69,7.69,0,0,1-8-7.8,7.81,7.81,0,0,1,8-7.95,7.81,7.81,0,0,1,7.95,8A7.69,7.69,0,0,1,24.85,33.37Z" transform="translate(-9.4 -11.18)"/><path class="cls-1" d="M127.59,121.57c-3.6,0-9.75-.15-16.35-.15s-13.5.15-17.25.15v-1.65l3-.45c7.35-1,8.25-2.55,8.25-15.6V73.42c0-12-5.4-17.85-14.4-17.85-7.65,0-14.1,3.6-19.49,8.7v39.6c0,13,.9,14.55,8.24,15.6l3,.45v1.65c-3.75,0-10.19-.15-16.79-.15s-13,.15-16.8.15v-1.65l3.15-.45c6.9-1,8-2.7,8-15.6V68.47c0-7.2-1.35-9-6.9-11.1l-4.35-1.65v-1.2l21.15-5,1.35.9V61.12c8.09-7,14.54-11.7,24.14-11.7,13.65,0,21,7,21,22.35v32.1c0,13,1.05,14.55,8,15.6l3.15.45Z" transform="translate(-9.4 -11.18)"/><path class="cls-1" d="M210.54,121.57c-3.75,0-10.2-.15-16.8-.15-6.75,0-13.05.15-16.8.15v-1.65l3.15-.45c6.9-1,7.95-2.7,7.95-15.6V56.92H154.29v47c0,13,1.2,14.55,10.65,15.6l3.9.45v1.65c-4.8,0-13.5-.15-20.1-.15-6.75,0-13.05.15-16.8.15v-1.65l3.15-.45c6.9-1,7.95-2.7,7.95-15.6V56.92H131.19v-1.2L143,52V50c0-19.5,14.25-38.84,33.45-38.84a32.6,32.6,0,0,1,15.75,3.6l4.8-3.6L199.29,13v90.9c0,13,.9,14.55,8.25,15.6l3,.45ZM188,51.82V33.67c0-11.25-5.1-18.45-15.15-18.45-11.1,0-18.6,6.75-18.6,26.25V51.82Z" transform="translate(-9.4 -11.18)"/><path class="cls-1" d="M292.14,121.57c-8.7,0-16.05,0-22.35.45V111.37c-8.1,7-14.55,11.7-24.15,11.7-13.65,0-21-7-21-22.35V68.47c0-7.2-1.35-9-6.9-11.1l-4.35-1.65v-1.2l21.15-5,1.35.9v48.6c0,12,5.4,17.85,14.4,17.85,7.65,0,14.1-3.6,19.5-8.7V68.47c0-7.2-1.35-9-6.9-11.1l-4.35-1.65v-1.2l21.15-5,1.35.9v53.4c0,13,1,14.55,7.95,15.6l3.15.45Z" transform="translate(-9.4 -11.18)"/><path class="cls-1" d="M310.29,77.92v2c0,22.35,11.55,36.3,26.55,36.3,9.9,0,15.75-4.5,22.05-12l1.8.75c-6.15,10.5-16.2,18.45-28.5,18.45-19.5,0-32.85-13.65-32.85-35.55,0-23.7,17.55-38.7,33.6-38.7,18,0,27.3,9.3,28.05,28.8Zm37.5-2.55c-.45-14.85-7.05-23.4-17-23.4-11.4,0-19,9-20.4,23.4Z" transform="translate(-9.4 -11.18)"/><path class="cls-1" d="M448,121.57c-3.6,0-9.75-.15-16.35-.15s-13.5.15-17.25.15v-1.65l3-.45c7.35-1,8.25-2.55,8.25-15.6V73.42c0-12-5.4-17.85-14.4-17.85-7.65,0-14.1,3.6-19.5,8.7v39.6c0,13,.9,14.55,8.25,15.6l3,.45v1.65c-3.75,0-10.2-.15-16.8-.15s-13.05.15-16.8.15v-1.65l3.15-.45c6.9-1,7.95-2.7,7.95-15.6V68.47c0-7.2-1.35-9-6.9-11.1l-4.35-1.65v-1.2l21.15-5,1.35.9V61.12c8.1-7,14.55-11.7,24.15-11.7,13.65,0,21,7,21,22.35v32.1c0,13,1.05,14.55,7.95,15.6l3.15.45Z" transform="translate(-9.4 -11.18)"/><path class="cls-1" d="M514,109.42c-7.2,7.8-15.59,14-28,14-19.95,0-32.85-14.55-32.85-33.6,0-23.25,16.65-40.65,35.55-40.65,15.59,0,24.3,6.75,24.3,12.6a7.73,7.73,0,0,1-7.8,8.1c-5.1,0-7.5-4.95-8.25-15.9-2.55-1.2-4.8-1.8-9.6-1.8-13.8,0-22.8,11.4-22.8,30.3,0,20,11.25,33.45,27,33.45,8.1,0,13.49-2.1,21.29-7.65Z" transform="translate(-9.4 -11.18)"/><path class="cls-1" d="M569.63,64.42c-2.25,0-6-1.8-12.44-6.75a42.42,42.42,0,0,0-11.85,9.15v37.05c0,13,1.2,14.55,10.64,15.6l3.9.45v1.65c-4.79,0-13.49-.15-20.09-.15s-13,.15-16.8.15v-1.65l3.15-.45c6.9-1,8-2.7,8-15.6V68.47c0-7.2-1.35-9-6.9-11.1l-4.35-1.65v-1.2l21.15-5,1.35.9V62.92c9-9.9,15.29-13.65,22-13.65,4.8,0,8,1.8,8,6.3C575.33,61.27,572.33,64.42,569.63,64.42Z" transform="translate(-9.4 -11.18)"/><path class="cls-1" d="M582.53,122.17a8.1,8.1,0,1,1,8.1-8.1A8,8,0,0,1,582.53,122.17Z" transform="translate(-9.4 -11.18)"/><path class="cls-1" d="M636.38,121.57c-3.75,0-10.2-.15-16.8-.15-6.75,0-13.05.15-16.8.15v-1.65l3.15-.45c6.9-1,8-2.7,8-15.6V68.47c0-7.2-1.35-9-6.9-11.1l-4.35-1.65v-1.2l21.15-5,1.35.9v53.4c0,13,.9,14.55,8.25,15.6l3,.45Zm-18.3-88.2a7.69,7.69,0,0,1-8-7.8,7.95,7.95,0,1,1,15.9,0A7.69,7.69,0,0,1,618.08,33.37Z" transform="translate(-9.4 -11.18)"/><path class="cls-1" d="M679.13,123.37c-18.45,0-34.2-12.75-34.2-37.8,0-21.15,15.3-36.45,34.2-36.45,18.45,0,34.2,12.75,34.2,37.8C713.33,108.07,698,123.37,679.13,123.37Zm-2.4-71.7c-11.7,0-19.05,9-19.05,31.05,0,22.65,9.75,38.1,23.85,38.1,11.7,0,19.05-9,19.05-31C700.58,67.12,690.83,51.67,676.73,51.67Z" transform="translate(-9.4 -11.18)"/></svg>
